<svg
  id="Cancel"
  xmlns="http://www.w3.org/2000/svg"
  width="80"
  height="80"
  viewBox="0 0 80 80"
>
  <path
    id="Path_994"
    data-name="Path 994"
    d="M90,50a40,40,0,1,0,40,40A40,40,0,0,0,90,50Zm0,73.144A33.144,33.144,0,1,1,123.144,90,33.144,33.144,0,0,1,90,123.144Z"
    transform="translate(-50 -50)"
    fill="#273952"
  />
  <path
    id="Path_995"
    data-name="Path 995"
    d="M110.855,80.392a3.362,3.362,0,0,0-4.771,0L95.619,90.848,85.155,80.392a3.378,3.378,0,0,0-4.772,4.772L90.848,95.62,80.384,106.084a3.357,3.357,0,1,0,4.724,4.772l10.511-10.464,10.464,10.464a3.374,3.374,0,0,0,4.771-4.771L100.391,95.62l10.464-10.456A3.378,3.378,0,0,0,110.855,80.392Z"
    transform="translate(-55.619 -55.621)"
    fill="#273952"
  />
</svg>
