 <svg width="35" height="35" viewBox="0 0 25 25" fill="none" xmlns="http://www.w3.org/2000/svg">
   <path
     d="M18.5308 8.49609C18.5308 6.90479 17.8986 5.37867 16.7734 4.25345C15.6482 3.12823 14.1221 2.49609 12.5308 2.49609C10.9395 2.49609 9.41334 3.12823 8.28812 4.25345C7.1629 5.37867 6.53076 6.90479 6.53076 8.49609C6.53076 15.4961 3.53076 17.4961 3.53076 17.4961H21.5308C21.5308 17.4961 18.5308 15.4961 18.5308 8.49609Z"
     fill="#3F3D56" stroke="#3F3D56" stroke-width="2" stroke-linecap="round" stroke-linejoin="round" />
   <path
     d="M14.2608 21.4961C14.085 21.7992 13.8326 22.0507 13.529 22.2256C13.2254 22.4005 12.8812 22.4925 12.5308 22.4925C12.1804 22.4925 11.8362 22.4005 11.5326 22.2256C11.2289 22.0507 10.9766 21.7992 10.8008 21.4961"
     stroke="#3F3D56" stroke-width="2" stroke-linecap="round" stroke-linejoin="round" />
 </svg>