<svg
  xmlns="http://www.w3.org/2000/svg"
  width="84"
  height="84"
  viewBox="0 0 84 84"
>
  <g id="Success" transform="translate(-48.1 -48.1)">
    <path
      id="Path_57466"
      data-name="Path 57466"
      d="M90.06,130.1A40,40,0,1,1,130.1,90.06,40,40,0,0,1,90.06,130.1Zm0-75a35,35,0,1,0,0-.04Z"
      transform="translate(0)"
      fill="#273952"
      stroke="#273952"
      stroke-width="4"
    />
    <path
      id="Path_57467"
      data-name="Path 57467"
      d="M92.072,110.226a2.508,2.508,0,0,1-1.782-.734L79.379,98.581a2.524,2.524,0,1,1,3.564-3.564l9.129,9.129,20.04-20.04a2.524,2.524,0,0,1,3.564,3.564L93.854,109.492a2.508,2.508,0,0,1-1.782.734Z"
      transform="translate(-7.429 -6.364)"
      fill="#273952"
      stroke="#273952"
      stroke-width="4"
    />
  </g>
</svg>
